<svg width="40" height="49" viewBox="0 0 40 49" fill="none" xmlns="http://www.w3.org/2000/svg">
<path d="M40 0.86997C37.9838 -0.450982 35.9676 -0.0338402 34.16 0.591874C31.6571 1.49568 29.2238 2.67759 26.999 4.06806C16.9181 10.7423 10.8695 20.2671 8.36668 32.0166C7.74097 35.0061 7.53238 38.1347 7.11524 41.5414C4.33429 39.9423 2.87429 36.8138 0.0933362 35.0061C-0.254283 36.3966 0.440968 37.3004 0.997158 38.0652C3.29144 41.1938 5.65524 44.3223 8.08857 47.3814C9.27047 48.8414 10.1743 48.9804 11.4257 47.729C14.0676 45.1566 15.6667 42.028 16.1533 38.4128C16.1533 38.2738 15.9448 38.0652 15.6667 37.7176C12.6772 38.4823 13.3724 42.3061 10.8 43.6966C9.68763 38.8995 10.5219 34.3109 11.7733 29.8614C13.0943 25.2033 14.8324 20.7538 17.6133 16.7909C20.3248 12.8976 23.7314 9.76901 27.4857 6.84901C31.1705 3.85949 35.3419 1.98235 40 0.86997Z" fill="#FEAE00"/>
</svg>
