<svg width="40" height="49" viewBox="0 0 40 49" fill="none" xmlns="http://www.w3.org/2000/svg">
<path d="M0 0.86997C2.01619 -0.450981 4.0324 -0.0338399 5.84001 0.591874C8.34287 1.49568 10.7762 2.67759 13.001 4.06806C23.0819 10.7423 29.1305 20.2671 31.6333 32.0166C32.259 35.0061 32.4676 38.1347 32.8848 41.5414C35.6657 39.9423 37.1257 36.8138 39.9067 35.0061C40.2543 36.3966 39.559 37.3004 39.0028 38.0652C36.7086 41.1938 34.3448 44.3223 31.9114 47.3814C30.7295 48.8414 29.8257 48.9804 28.5743 47.729C25.9324 45.1566 24.3333 42.028 23.8467 38.4128C23.8467 38.2738 24.0552 38.0652 24.3333 37.7176C27.3228 38.4823 26.6276 42.3061 29.2 43.6966C30.3124 38.8995 29.4781 34.3109 28.2267 29.8614C26.9057 25.2033 25.1676 20.7538 22.3867 16.7909C19.6752 12.8976 16.2686 9.76901 12.5143 6.84901C8.82952 3.85949 4.65809 1.98235 0 0.86997Z" fill="#FEAE00"/>
</svg>
