<svg width="18" height="14" viewBox="0 0 18 14" fill="none" xmlns="http://www.w3.org/2000/svg">
<path d="M14.8333 0.333252H3.16663C2.50358 0.333252 1.8677 0.596644 1.39886 1.06549C0.930018 1.53433 0.666626 2.17021 0.666626 2.83325V11.1666C0.666626 11.8296 0.930018 12.4655 1.39886 12.9344C1.8677 13.4032 2.50358 13.6666 3.16663 13.6666H14.8333C15.4963 13.6666 16.1322 13.4032 16.6011 12.9344C17.0699 12.4655 17.3333 11.8296 17.3333 11.1666V2.83325C17.3333 2.17021 17.0699 1.53433 16.6011 1.06549C16.1322 0.596644 15.4963 0.333252 14.8333 0.333252V0.333252ZM14.275 1.99992L8.99996 5.95825L3.72496 1.99992H14.275ZM14.8333 11.9999H3.16663C2.94561 11.9999 2.73365 11.9121 2.57737 11.7558C2.42109 11.5996 2.33329 11.3876 2.33329 11.1666V3.04159L8.49996 7.66658C8.64421 7.77477 8.81965 7.83325 8.99996 7.83325C9.18027 7.83325 9.35571 7.77477 9.49996 7.66658L15.6666 3.04159V11.1666C15.6666 11.3876 15.5788 11.5996 15.4225 11.7558C15.2663 11.9121 15.0543 11.9999 14.8333 11.9999Z" fill="#FEAE00"/>
</svg>
