<?xml version="1.0" encoding="UTF-8"?>
<svg id="_Слой_1" data-name="Слой_1" xmlns="http://www.w3.org/2000/svg" version="1.1" viewBox="0 0 40 41">
  <!-- Generator: Adobe Illustrator 29.7.1, SVG Export Plug-In . SVG Version: 2.1.1 Build 8)  -->
  <defs>
    <style>
      .st0, .st1 {
        display: none;
      }

      .st0, .st2 {
        fill: #141c21;
      }

      .st1 {
        fill: none;
        stroke: #141c21;
        stroke-miterlimit: 10;
        stroke-width: .9px;
      }

      .st3 {
        fill: #feae00;
      }
    </style>
  </defs>
  <circle class="st3" cx="20" cy="20.5" r="19.2"/>
  <path class="st0" d="M-18.6,18.9h-1.5c-.1-.8-.4-1.5-.7-2.2l1.2-1.1c.3-.3.3-.7,0-1l-.6-.7c-.3-.3-.7-.3-1,0l-1,.9c-.6-.6-1.2-1.1-2-1.5l.4-1.6c.1-.4-.1-.8-.5-.9l-.9-.2c-.4-.1-.8.1-.9.5l-.4,1.4c-.5,0-1-.1-1.5-.1s-.8,0-1.1,0l-.3-1.5c0-.4-.5-.6-.8-.5l-.9.2c-.4,0-.6.5-.5.8l.4,1.7c-.8.4-1.5.9-2.1,1.5l-.9-.8c-.3-.3-.7-.2-1,0l-.6.7c-.3.3-.2.7,0,1l1,.9c-.4.7-.7,1.5-.8,2.4h-1.4c-.4,0-.7.3-.7.7v.9c0,.4.3.7.7.7h1.3c.1.9.4,1.7.7,2.5l-1.1,1c-.3.3-.3.7,0,1l.6.7c.3.3.7.3,1,0l.9-.8c.6.7,1.4,1.2,2.2,1.6l-.3,1.3c0,.4.2.8.5.8l.9.2c.4,0,.8-.2.8-.5l.3-1.1c.4,0,.8,0,1.2,0s1,0,1.5-.1l.3,1.2c.1.4.5.6.9.5l.9-.2c.4-.1.6-.5.5-.9l-.4-1.4c.8-.4,1.5-1,2.1-1.7l.9.8c.3.3.7.2,1,0l.6-.7c.3-.3.2-.7,0-1l-1.1-1c.3-.7.5-1.5.6-2.3h1.4c.4,0,.7-.3.7-.7v-.9c0-.4-.3-.7-.7-.7h0ZM-27.7,24.4c-2.4,0-4.3-1.9-4.3-4.3s1.9-4.3,4.3-4.3,4.3,1.9,4.3,4.3-1.9,4.3-4.3,4.3Z"/>
  <path class="st0" d="M-25.6,18c-.2-.2-.6-.1-.7.1l-2.1,2.9-1.1-1.1c-.2-.2-.5-.2-.7,0h0c-.2.2-.2.5,0,.7l1.5,1.5c.2.2.5.2.7,0s0,0,0,0c0,0,.1,0,.1-.1l2.4-3.2c.2-.2.1-.6-.1-.7h0Z"/>
  <path class="st0" d="M30.8,57.3c0-3.5-4.8-6.3-10.8-6.3s-10.8,2.8-10.8,6.3,4.8,6.3,10.8,6.3,3.7-.3,5.3-.8l3.6,1.9-1-3.1c1.8-1.1,2.9-2.7,2.9-4.3h0ZM15.1,58.7c-.8,0-1.4-.6-1.4-1.4s.6-1.4,1.4-1.4,1.4.6,1.4,1.4-.6,1.4-1.4,1.4ZM19.6,58.7c-.8,0-1.4-.6-1.4-1.4s.6-1.4,1.4-1.4,1.4.6,1.4,1.4-.6,1.4-1.4,1.4ZM22.9,57.3c0-.8.6-1.4,1.4-1.4s1.4.6,1.4,1.4-.6,1.4-1.4,1.4-1.4-.6-1.4-1.4Z"/>
  <path class="st0" d="M-19.7,9.2c-3.7,0-6.7,3-6.7,6.7s3,6.7,6.7,6.7,6.7-3,6.7-6.7-3-6.7-6.7-6.7ZM-19.7,21.1c-2.9,0-5.2-2.3-5.2-5.2s2.3-5.2,5.2-5.2,5.2,2.3,5.2,5.2-2.3,5.2-5.2,5.2Z"/>
  <path class="st0" d="M-11.6,17.7c-.3,0-.6,0-.9,0-.6,2.7-2.8,4.8-5.6,5.2,0,.4-.1.8-.1,1.3,0,3.6,2.9,6.6,6.6,6.6s6.6-2.9,6.6-6.6-2.9-6.6-6.6-6.6h0Z"/>
  <path class="st0" d="M-19.7,19c-.4,0-.9,0-1.3-.2s-.8-.3-1-.6l.6-.9c.1.1.3.3.5.3s.4.2.6.2c.2,0,.4,0,.6,0,.4,0,.7,0,.9-.2.2-.1.3-.3.3-.6s0-.4-.2-.5c-.2-.1-.4-.3-.9-.4h-.6c-.6-.3-1-.5-1.3-.8-.3-.3-.4-.7-.4-1.1s0-.7.3-1c.2-.3.5-.5.8-.7s.7-.2,1.1-.2.8,0,1.2.2c.4.1.7.3.9.5l-.6.9c-.2-.2-.4-.3-.7-.4-.3-.1-.5-.2-.8-.2s-.4,0-.6,0c-.2,0-.3.2-.4.3,0,.1-.1.3-.1.4s0,.4.2.5.4.2.9.4h.7c.5.3,1,.5,1.2.8.3.3.4.6.4,1.1s0,.7-.3,1-.4.5-.8.7-.8.2-1.2.2h0ZM-20.2,19.6v-7.6h1v7.6h-1Z"/>
  <rect class="st1" x="14.9" y="44" width="8.6" height="3.5" rx="1.7" ry="1.7"/>
  <path class="st0" d="M9.3,45.8v4.3h7.1v-.9c0-.7.6-1.3,1.3-1.3h3c.7,0,1.3.6,1.3,1.3v.9h7.1v-4.3H9.3Z"/>
  <path class="st0" d="M22,51v.2c0,.7-.6,1.3-1.3,1.3h-3c-.7,0-1.3-.6-1.3-1.3v-.2h-6.9v7.4h19.7v-7.4h-7.2Z"/>
  <rect class="st2" x="18.8" y="18.3" width="2.8" height="9.3"/>
  <rect class="st2" x="15.2" y="21.5" width="2.8" height="6.1"/>
  <polygon class="st2" points="11.6 23.8 11.6 27 10.4 27 10.4 27.6 11.6 27.6 13.2 27.6 14.5 27.6 14.5 23.8 11.6 23.8"/>
  <polygon class="st2" points="26.2 27 26.2 14.8 27.9 14.8 24.4 11 20.7 14.8 22.3 14.8 22.3 27.6 26 27.6 26.2 27.6 28 27.6 28 27 26.2 27"/>
</svg>