<svg version="1.2" xmlns="http://www.w3.org/2000/svg" viewBox="0 0 459 56" width="459" height="56">
	<title>Nethertoxagent (лого белый)</title>
	<style>
		.s0 { fill: #feae00 } 
		.s1 { fill: #ffffff } 
	</style>
	<path class="s0" d="m17.8 21.5c0.5-0.1 1-0.1 1.5-0.2 6.7-1.2 11.8-6.8 12.5-13.7 0.6 0 1.3 0 2 0v5.3 2.2c0 1 0 1.8-0.2 2.9-0.6 2.7-2.8 4.8-5.4 5.4-1.1 0.3-2.6 0.2-3.8 0.2h-4.5-2v-2z"/>
	<path class="s0" d="m54.6 23.5c-1 0-2.1 0-3.1 0h-4.7c-0.5 0-1.1 0-1.6 0-3-0.2-5.6-2.6-6.3-5.5-0.3-1.4-0.2-3.4-0.2-4.8v-5.6c0.6 0 1.3 0 1.9 0 0 2.8 1.5 6.1 3.2 8.2 2.8 3.5 6.5 5.3 10.9 5.7 0 0.6 0 1.3 0 2z"/>
	<path class="s0" d="m54.5 20.5c-3.8-0.9-7.6-4-10-7-1.2-1.5-2.6-4.1-3.1-6 1.4 0.2 2.6 0.4 3.9 1 2.3 0.9 4.3 2.4 5.9 4.3 1.7 2.1 3.1 5 3.3 7.7z"/>
	<path class="s0" d="m17.8 20.5c0-0.8 0.2-1.5 0.4-2.3 1.5-5.6 6.5-9.9 12.3-10.6h0.3c-0.2 0.7-0.8 2.1-1.2 2.8-2.4 4.5-6.6 8.4-11.6 10h-0.3z"/>
	<path class="s0" d="m17.8 30.4c0-0.3 0-1.8 0-1.9 1.9 0 3.9 0 5.8 0 1.2 0 2.5 0 3.7 0 2.8 0.4 5.3 2.6 6 5.3 0.4 1.4 0.3 2.9 0.2 4.3v3.2 2.2c0 0.2 0 0.8 0 0.9h-1.9c-0.1-0.9-0.3-2-0.5-2.9-1.7-6.1-7.2-10.4-13.4-11.1z"/>
	<path class="s0" d="m38.6 44.4v-6.2c0-1.1-0.1-2.6 0.1-3.7 0.6-3.1 3.3-5.8 6.5-6.1 0.2 0 0.8 0 1.1 0h2.1c2 0 4.1 0 6.1 0q0 1.1 0 2.1c-0.8 0-2.1 0.3-3 0.5-4.2 1.2-7.3 3.7-9.4 7.5-1 1.9-1.5 3.7-1.8 5.8h-1.8z"/>
	<path class="s0" d="m41.5 44.4c0-0.2 0.2-0.6 0.2-0.8 1-2.8 2.9-5.5 5-7.5 1.8-1.8 5.3-4.2 7.8-4.7 0 0 0 0 0 0.1-0.3 3-1.7 5.7-3.6 7.9-2.3 2.6-5.9 4.7-9.4 4.9z"/>
	<path class="s0" d="m30.6 44.3c-0.4 0-0.9-0.1-1.3-0.2-6.1-1.2-10.9-6.5-11.5-12.7 1 0.2 2.5 1 3.4 1.5 2.5 1.4 4.8 3.5 6.5 5.8 1.2 1.6 2.3 3.7 2.9 5.6z"/>
	<g>
		<path class="s1" d="m80.5 24.4v15.8h-5v-26.7h6.4l11.8 20.7c-0.2-1.9-0.3-3.7-0.3-5.2v-15.5h5v26.7h-6.6l-11.6-20.6q0.2 1.5 0.3 2.7 0 1.2 0 2.1z"/>
		<path class="s1" d="m125.4 35.9v4.3h-21.8v-26.7h21v4.3h-15.4v6.7h14.3v4.3h-14.3v7h16.2z"/>
		<path class="s1" d="m141.5 17.8v22.4h-5.6v-22.4h-8.6v-4.3h22.9v4.3h-8.6z"/>
		<path class="s1" d="m158.8 28.8v11.5h-5.6v-26.7h5.6v10.6h11.6v-10.6h5.6v26.7h-5.6v-11.5z"/>
		<path class="s1" d="m203 35.9v4.3h-21.8v-26.7h21v4.3h-15.4v6.7h14.3v4.3h-14.3v7h16.2z"/>
		<path class="s1" d="m212.8 30.1v10.1h-5.6v-26.7h13.4c3.2 0 5.6 0.7 7.4 2.1 1.7 1.4 2.6 3.3 2.6 5.9 0 2.6-0.5 3.5-1.6 4.8-1.1 1.4-2.5 2.3-4.3 2.7l7.2 11.2h-6.3l-6.2-10.1zm12.1-8.4c0-1.3-0.4-2.2-1.2-2.9-0.8-0.6-2.1-1-3.7-1h-7.2v7.9h7.3c1.6 0 2.8-0.4 3.6-1.1q1.2-1.1 1.2-3z"/>
		<path class="s1" d="m247.3 17.8v22.4h-5.6v-22.4h-8.6v-4.3h22.9v4.3h-8.6z"/>
		<path class="s1" d="m284.2 26.7c0 2.8-0.6 5.2-1.7 7.3-1.1 2.1-2.7 3.7-4.7 4.8-2 1.1-4.4 1.7-7.1 1.7-2.7 0-5.2-0.6-7.2-1.7-2-1.1-3.6-2.7-4.6-4.8-1.1-2.1-1.6-4.5-1.6-7.4 0-2.9 0.5-5.3 1.6-7.3 1.1-2 2.6-3.6 4.6-4.7 2-1.1 4.4-1.6 7.3-1.6 2.9 0 5.3 0.5 7.3 1.6 2 1.1 3.6 2.7 4.6 4.7 1.1 2 1.6 4.5 1.6 7.3zm-5.7 0c0-2.9-0.7-5.1-2-6.8-1.4-1.6-3.3-2.5-5.7-2.5-2.4 0-4.4 0.8-5.8 2.4-1.4 1.6-2 3.9-2 6.8 0 2.9 0.3 3.6 0.9 5q0.9 2.1 2.7 3.3c1.2 0.8 2.6 1.1 4.2 1.1 2.5 0 4.4-0.8 5.8-2.5 1.4-1.6 2-4 2-7z"/>
		<path class="s1" d="m298.8 29.6l-6.7 10.6h-5.9l9.3-14.1-8.5-12.7h5.9l5.9 9.4 5.9-9.4h5.9l-8.1 12.7 8.9 14.1h-5.9z"/>
		<path class="s1" d="m320.7 33.4l-2.4 6.8h-5.6l9.7-26.7h6.6l9.7 26.7h-5.5l-2.4-6.8h-10.2zm5.1-15.8c-0.1 0.5-0.3 1.1-0.5 1.8-0.2 0.7-0.4 1.2-0.5 1.5l-2.8 8.2h7.7l-2.9-8.4c-0.2-0.5-0.3-1-0.5-1.6-0.2-0.5-0.3-1.1-0.5-1.6z"/>
		<path class="s1" d="m355.1 36.2q2.3 0 4.2-0.6c1.3-0.4 2.4-1 3.2-1.6v-3.7h-6.5v-4.1h11.6v9.8c-1.4 1.5-3.3 2.6-5.5 3.4-2.3 0.8-4.6 1.2-7.1 1.2-2.5 0-5.4-0.5-7.4-1.6-2-1.1-3.5-2.7-4.6-4.7-1-2.1-1.6-4.6-1.6-7.5 0-4.4 1.2-7.8 3.5-10.1 2.4-2.3 5.7-3.5 10.1-3.5 4.4 0 5.7 0.6 7.7 1.7 2 1.2 3.4 2.9 4.3 5.2l-5.2 1.6c-0.6-1.4-1.4-2.4-2.6-3.1-1.2-0.7-2.6-1-4.2-1q-3.9 0-6 2.4c-1.4 1.6-2 3.9-2 6.8 0 2.9 0.7 5.4 2.1 7 1.4 1.7 3.4 2.5 5.9 2.5z"/>
		<path class="s1" d="m394.4 35.9v4.3h-21.8v-26.7h21v4.3h-15.4v6.7h14.3v4.3h-14.3v7h16.2z"/>
		<path class="s1" d="m403.5 24.4v15.8h-5v-26.7h6.4l11.8 20.7c-0.2-1.9-0.3-3.7-0.3-5.2v-15.5h5v26.7h-6.6l-11.6-20.6q0.1 1.5 0.3 2.7c0.1 0.8 0 1.5 0 2.1z"/>
		<path class="s1" d="m438.6 17.8v22.4h-5.6v-22.4h-8.6v-4.3h22.9v4.3h-8.6z"/>
	</g>
</svg>